<?xml version="1.0" encoding="utf-8"?>
<!-- Generator: Adobe Illustrator 27.2.0, SVG Export Plug-In . SVG Version: 6.00 Build 0)  -->
<svg version="1.1" xmlns="http://www.w3.org/2000/svg" xmlns:xlink="http://www.w3.org/1999/xlink" x="0px"
	 y="0px" viewBox="0 0 2000 2000" style="enable-background:new 0 0 2000 2000;" xml:space="preserve">
<style type="text/css">
	.st0{fill:#2DE1E1;}
	.st1{fill:#FBFBFF;}
</style>
<path class="st0" d="M221.1,423.2c-18.9-18.3-27.6-45.2-29.3-71.1c-0.7-17.5,1.5-37.7,16.2-49.3c-18.2,8.4-24.3,30.8-25.6,49.3
	c-1.3,24.5,4.8,49.7,18.8,70c15.4,22.4,41.1,34.5,67.6,25.4c9.5-3.3,17.9-8.5,24.8-15.2C267.7,439.7,242.3,443,221.1,423.2z"/>
<path class="st0" d="M259.1,186.1c51.1-27,114.7-35.2,167.8-8.7c0,0,0,0,0,0c0,0,0,0,0,0c0,0,0,0,0,0c0,0,0,0,0,0
	c-13.1-12.2-30.2-19.8-47.5-23.9c-56.9-12.3-97.9,0.5-145.8-43.3c14.6,23.8,38.6,38.5,65.6,44.2c0.3,0.1,0.6,0.1,0.9,0.2
	c-76.2,18.7-142.9,85.8-145.1,165.5C166.5,261.7,207.1,213.2,259.1,186.1z"/>
<path class="st0" d="M628.5,278.6c-28.4-32.6-52.2-68.8-83-99.9c-40-41.8-93.3-77.1-152.8-78.7c64,14.1,114.5,56.7,156.9,104.4
	c24.5,26.6,46.3,55.6,73.7,79.5c11.1,9.1,24.4,19,39.5,18.2C648.5,299.6,638,288.7,628.5,278.6z"/>
<path class="st0" d="M266.4,313.6c91-42.7,168.8-26.2,255.2,18.1c20.3,9.9,40.3,20.9,61.5,29.3c7.1,2.7,14.5,5.3,22,6.2
	c-1.8-0.8-3.5-1.5-5.2-2.2c0,0-5-2.5-5-2.5c-23.2-12.7-44.3-28.5-67.4-41.6c-26.4-15.5-54.7-28.5-84.4-36.5
	C381,267.5,319.5,276.9,266.4,313.6z"/>
<path class="st0" d="M777.5,387.6c-0.7-0.4-1.4-0.7-2.1-1c-4.8-2.5-8.8-6-12.5-9.9c-12.1-13.3-19.9-30.1-24.7-47.3
	c-6.4-23.7-6.3-47.4-0.3-71.5c-12.8,16.2-16.9,37.3-14.4,58c-24.4-47.5-60.6-88.1-111.1-107.7c33.4,24.4,61.8,53.5,83.3,88.7
	c11,17.5,20.4,35.7,31.9,53.2c6,8.9,12.6,17.7,20.8,24.7c4.1,3.6,8.8,6.6,13.7,8.9c4,1.9,8.3,3,12.5,3.7
	C775.6,387.4,776.6,387.5,777.5,387.6C777.6,387.6,777.6,387.6,777.5,387.6C777.6,387.6,777.6,387.6,777.5,387.6
	C777.6,387.6,777.6,387.6,777.5,387.6C777.6,387.6,777.5,387.6,777.5,387.6z"/>
<path class="st0" d="M1365.4,774.6C1365.4,774.6,1365.4,774.6,1365.4,774.6C1365.4,774.6,1365.4,774.6,1365.4,774.6
	C1365.4,774.6,1365.4,774.6,1365.4,774.6c0.4-4.2,0.5-8.4,0.2-12.6c-0.9-12.7-4.7-25.1-9.7-36.8c-37.4-82.2-142.2-161.9-224.5-195.5
	c-7.9-3-15.9-5.8-24.1-7.7c-8.2-1.8-16.7-3.5-25.1-2.1c26.2,1.4,66.2,27,88.9,41.4c45.7,30.4,98.9,70.8,139.4,115.6
	c-20.9-10-45-8.6-64.5,8.5c13.8-4.3,27.9-6.7,41.7-3.5c27.2,6.1,47.1,29,60.8,52.7C1355.6,746.9,1361.3,760.3,1365.4,774.6
	C1365.4,774.6,1365.4,774.6,1365.4,774.6z"/>
<path class="st0" d="M1540.5,1060.3c1.5,5.5,2.7,11,3.4,16.8c0,0,0,0,0,0c0,0,0,0,0,0c0,0,0,0,0,0c0,0,0,0,0,0
	c3.1-32-10.8-63.5-26.5-90.6c-15.9-27.5-34.1-53.1-49.6-79.9c-33.2-55.8-47.9-112.1-43.1-177.1c-20.6,82.2,5,149,50,215.6
	c-34.1-24.5-77.2-34.9-121.8-21.5c43.1-0.9,83.3,8.2,117.8,34.7C1503.6,983.6,1528.5,1020.3,1540.5,1060.3z"/>
<path class="st0" d="M1531.1,1245.4c31.5,42.5,21.3,124.2,3.4,171.1c-12.4,33.5-31.9,63.5-59.8,87c22-11.1,40.3-29.1,53.9-49.5
	c27.3-41.5,38.5-93.2,32.5-142.3C1557.7,1287.6,1550.2,1261.6,1531.1,1245.4z"/>
<path class="st0" d="M1439.2,1548.6c-6.5,1.1-13.9,1.7-19.5-2.4c4.6,5.9,12.9,6.7,19.9,6.7c37.9-0.3,110.5-41.3,115.5-81.5
	C1543.2,1504,1472.4,1542.5,1439.2,1548.6z"/>
<path class="st0" d="M1441.5,1612c-0.6,3.4-0.5,6.9,0.5,10.1c3.6-12.3,12-20.2,22.3-26.7c10.4-6.2,21.5-10.9,34-12
	C1478,1573.7,1445.6,1589.5,1441.5,1612z"/>
<path class="st0" d="M1164.2,473c14.5,18.3,27.1,38,36.7,59.9c-2-11.8-5.9-23.3-10.7-34.3c-25.2-55.1-72-98.1-123.8-128.1
	c-20.9-11.5-43.4-22-67.4-24.3c22.5,7.5,42.5,20,62.1,33C1099.5,405.5,1135,436.6,1164.2,473z"/>
<path class="st0" d="M1820.4,1378.1c-11.7-7.8-25.3-11.2-38.2-12.6c-6.4-0.7-12.3-1.3-18-2.6l-2.2-0.4c0,0-2.1-0.6-2.1-0.6
	c-2.5-0.6-5.8-1.8-8.3-2.8c-15-6.1-28.4-17.1-40-28.8c-3.9-3.7-8.9-9.5-12.7-13.5c-5.8-7-12.1-14.4-17.6-21.8
	c-11.5-14.7-22.1-30.6-32.7-45.9c21.5,41.3,53.8,97.6,96.3,119.3c1.4,0.6,5.5,2.4,6.9,3c2.3,0.8,4.9,1.6,7.2,2.4
	c10.3,2.9,20.4,3.3,30.4,5.4c19.6,4,37.2,15.4,41.2,36.1c2.5,13.1,0.7,28.6-6.8,39.9c-0.5,0.7-1.7,1.9-2.7,2.9
	c-1.8,1.8-4.3,4.5-6.4,6.1c-52.9,46.3-129.5-1.7-176.1-36c-20.1-14.8-39.2-31.1-58-47.8c17,18.5,35.1,36.1,54.3,52.4
	c42.1,35.1,105.2,77.6,162.1,56.6l2.4-0.9c0,0,2.3-1.1,2.3-1.1c6.1-2.7,12-6.4,17.3-10.4c0,0,1-0.7,1-0.7c2.1-1.9,4.6-3.8,6.7-5.7
	c2.3-2.5,4.9-4.7,7.2-7.5c6.5-8.9,9.1-19.1,10.3-29.7C1846.9,1412.1,1838.7,1389.9,1820.4,1378.1z"/>
<path class="st0" d="M514.1,611.7c-13.7-7.3-27.7-15-39.5-25.2c-2.4-2.1-5-4.6-6.8-7.2c-0.9-1-1.7-2.5-2.4-3.7
	c-0.2-0.4-0.5-1.3-0.7-1.7c-0.5-1.7-0.9-3.5-1.2-5.3c-3.7-33.7,9.9-96.1,25.2-126.4c2.7-5.2,5.5-10,9.5-14c2.4-2.5,5.3-4.1,8.1-6.2
	c16.2-10.9,34.1-19.4,52.5-26.2c9.3-3.4,18.7-6.6,28.5-8.2c-10,0-19.9,2.1-29.7,4.3c-19.6,4.9-38.6,12.1-56.2,22.2
	c-3.4,2.1-7.1,4.1-10,6.8c-5.1,4.6-9,10.4-12.3,16.1c-16.4,28.9-29.6,81.8-29.2,119.5c-4.9,0-9.8,0.4-14.5,0.9
	c-29.5,2.7-68.4,15-96.3,5.7c-17.3-5.8-25.6-24.5-27-41.6c-1-12.7,3.9-26.3,17.8-27.7c3.1-0.4,11.7-1.4,14.9-1.8
	c26.8-3,53.6-7.1,79.7-13.9c-30.2,3-60.2,4.2-90.5,5.2c-34.1-0.7-39.6,34.4-30.3,60.4c19.5,56.9,89.8,33,133.3,26.2
	c4.6-0.7,9.1-1.3,13.6-1.6c0.1,0.8,0.2,1.6,0.3,2.4c0.6,3.7,1.6,7.5,3.2,10.8c0.7,1.1,1.6,2.9,2.4,3.9c0.6,0.9,2,2.6,2.7,3.4
	c2.6,3,5.9,5.9,8.9,8.4c16.6,13,35.8,22.1,54.9,30.6c13.7,5.9,27.8,11.5,41.9,16.5c28,10.1,56.9,18.9,85.7,26.5
	c-9.2-3.8-18.5-7.4-27.7-11.1C586.1,644.6,549.2,630,514.1,611.7z"/>
<path class="st0" d="M923,176.6c-25.4-5.1-51.8,9.8-59.9,34.6c-3.1,9.3,0,18.7,1.9,27.5c5.5,21.3,11.4,42.8,11.9,64.6
	c0.5,13.5-1,26.9-4.4,39.9c-15.4,6.4-29.7,16.4-41.9,29.3c-4.5,4.6-8.8,9.3-13.1,13.5c-4.4,4.3-8.9,8.1-15.4,10.1
	c13.2,3.3,25.9,5.5,38.5,9.8c9.3,3,18.4,7.3,27.8,10.7c3.3,1.1,6.7,2.1,10.2,2.5c-11-8.4-21.7-17.2-35.2-21.5
	c-7.7-2.5-15.7-3.8-23.8-3.8c6.9-3.2,13.4-8.2,18.9-12.4c10.1-8,19.3-16.1,29.8-22.4c15.6-9.7,33.6-15.6,52-18
	c6.3-1,12.7-1.4,19.2-2c-18.4-5.1-36.6-4.9-53.5-0.5c7.2-26.5,5-55.3-1.5-81.6c-2.6-12.5-7.1-24.6-8.4-37c-0.2-2.5,0.2-3.5,0.9-5.5
	c6.2-18.1,25.3-28.7,44.1-25.9c4.1,0.5,8.2,1.6,12,3.1c8.4,3.7,13.9,11.2,18.6,19.4c16.4,30.4,23,73.1,17.4,107.3
	c10.6-33.8,6.8-80-8.5-112C952.3,189.9,942.2,179.9,923,176.6z"/>
<path class="st1" d="M1155.1,956.1c3.5,6.1,6.7,12.4,9.9,18.7c-1.7-6.9-4-13.7-6.6-20.3c-29.5-75.7-105.8-117.7-176.6-147.9
	c-19.4-9.4-61.8-23.9-67.4-45.6C919.9,814.1,1089.1,837.5,1155.1,956.1z"/>
<path class="st1" d="M982.4,1203c5.1,2.1,11.9,4.4,17.4,6.1c-15.7-9.6-30.3-20.5-43.1-33.1c-43.2-42.9-54.7-90.8-15.8-141.1
	c-32.4,25.3-42.8,65.3-24.5,102.7c1,2,2,4,3.1,5.9c-12.8-20-21.7-43-28-69.2c-14.4-59.5-16.1-121.3-33.7-180.4
	c-22.4-78.1-71.6-129.3-150.4-151.2c143,57.3,141.7,167,164.5,298.4c7.1,36.5,17.3,73.4,38.5,104.5
	C927.9,1171.6,953.5,1191.4,982.4,1203z"/>
<path class="st1" d="M1361.9,1252.8c-11.6,1.7-23.3-0.7-34.1-4.7c-44.4-17.2-87.7-60-119.7-94.8c-17.3-19.1-33.8-39-48.5-60.1
	c-7.1-10.7-14.6-21.5-18.4-33.9c2.7,23.1,21.4,51,34.8,70c7.5,10.1,16,20.8,25.3,31.4c-0.5-0.3-0.9-0.6-1.4-0.9
	c-59.2-37.3-128.2-40.7-193.8-19.4c66.2-10.4,129.2-6,187,30.6c35.2,21.1,64,51.5,99.5,72.5c22.5,13.2,48,18.6,72.9,8.6c0,0,0,0,0,0
	c0,0,0,0,0,0c0,0,0,0,0,0C1364.2,1252.4,1363,1252.6,1361.9,1252.8z"/>
<path class="st1" d="M967.2,1298.2c2.8-4.9,5.2-10,7.2-15.3c5.8-15.1,8.1-32.3-7.7-42.2c-6.9-4.5-14.3-8.1-20.6-13.1
	c-12.8-9.8-21.5-24-29.6-37.9c3.7,23.6,16.4,43.8,37.6,55.3c4.8,2.8,9.5,5.3,12.2,8.4c6.3,7.5,3.9,19,3,28.3
	C968.8,1287.2,967.8,1292.7,967.2,1298.2z"/>
<path class="st1" d="M1408.9,1172.6c-29.7-20.3-70.6-26.6-102.8-8.8c45.8-13,90,7.3,120.8,41.2c31,33.7,49,76.8,58.9,121.6
	C1486.5,1267.6,1458.8,1206,1408.9,1172.6z"/>
<path class="st1" d="M1410.3,1361.3c-12.5,25-29.7,48-43.3,73c-5.5,10.7-14.4,31.4,0.9,38.5c9.6,3.6,18.3,1,27.7,0.4
	c3.7-0.2,7-0.7,10,0.8c0.5,0.3,0.7,0.5,1,0.8c0.3,1.4-1.4,4-2.4,5.5c-6.4,8.7-15.3,17.4-18.8,28.5c2.9-5,6.7-9.1,10.7-13
	c5-5,11.2-9.4,15.5-15.6c3.6-5,1.6-11.1-4.2-13.6c-3.9-1.7-8.4-1.9-12.1-2c-5.6-0.1-11.3,0.3-16.7-0.1c-3.1-0.4-5.9-0.5-7.4-2.4
	c-2.6-9.5,10.2-27.4,15.3-36c6-9.5,12.3-19.1,18.2-29c17.4-29.6,31-64.2,27-99.1C1428.2,1320.3,1420.6,1341.3,1410.3,1361.3z"/>
<path class="st1" d="M1290.9,1328.3c3.7-1.8,7.2-3.7,10.7-5.4c-6.8,7.6-11.8,20.4-18.3,25c8.2-0.6,14.1-8.2,18.8-14
	c2.3-3,4.6-5.9,6.7-8.7c2.3-3,4-5.5,7.5-7.6c0,0,0,0,0,0c0,0,0,0,0,0c0,0,0,0,0,0c0,0,0,0,0,0c-4.6-2.1-10-2.4-14.9-1.7
	c-14.2,2.3-26.5,9.2-40.3,12.3c-18.1,4.5-36.7,5.4-55.5,6.6C1233.5,1342.6,1264.9,1341.4,1290.9,1328.3z"/>
<path class="st1" d="M1373.7,1348.9c6.4-5.7,12.2-12,17.3-18.9c-11.4,5.9-21.4,12.9-32.4,18.9c-7.2,3.6-16.1,9.4-23.9,4.2
	c-3.5-2.2-7.1-5.5-11.4-6.9c-6.9-2.4-14.2-0.1-19.8,4c14.3-1.2,15.9,0.9,25.7,10.3C1343.6,1372.6,1362.3,1358.7,1373.7,1348.9z"/>
<path class="st1" d="M954.7,1707c-1.7,16.3,2.8,34.5,11.9,48.1c3.3,4.4,7.9,9.6,13.9,9.7c-2.5-1.4-4.1-3.5-5.6-5.6
	C965.1,1743.3,959.2,1725.2,954.7,1707z"/>
<path class="st1" d="M954.4,1804.6c1.9,15.8,11.5,15.6,22.7,7.7c6.3-3.9,12.1-9.2,19.8-10.2c-10.2-1.1-19.4,6.7-28.4,9.5
	c-2.1,0.8-4.3,0.9-5.1,0.2c-2.5-1.9-2.4-8.3-2.7-11.6c-0.9-23.9-8.9-46.8-28.8-61.3c11.1,17,18.8,34.5,21.1,54.5
	C953.3,1795.9,954.1,1802.2,954.4,1804.6z"/>
<path class="st1" d="M1341.9,1788c0.8-9.5-6-17-15.2-18.7c-14.2-2.7-28.5,2.6-40.8,9.1c-19.3,10.5-35.8,25.6-48.3,43.5
	c16.9-13,33.6-26,52.4-35.8C1305,1778.5,1334.7,1764.7,1341.9,1788z"/>
<path class="st1" d="M1224.9,1742.7c10.9,7.6,23.7,9.9,34.1,18.2c-5.2-6.8-13-11.4-20.2-15.9c-5-3.5-14.9-8.1-13.3-15
	c0.9-3.3,3.4-6.3,5.8-9c0,0,8.5-9.6,8.5-9.6c22.5-26,71.8-81,34.8-112.4c11.6,13.9,10.2,30.5,2.7,46c-7.1,15-17.4,28.4-27.7,41.4
	c-5.3,6.6-10.7,13.1-16.2,19.6C1224.7,1716.5,1209.1,1730.5,1224.9,1742.7z"/>
<path class="st1" d="M1698.9,1128.5c-15.1-25.2-44.2-40.4-73.4-39.9c-4,0.1-9.9,0.9-13.8,1.3c-48.3,4.9-97.3,1.4-144.7-8.2
	c-105.9-21.6-199.4-78.8-266.6-163.7c4.8,6.4,10.9,15.3,16.1,21.5c10.9,13.9,23.4,27.7,35.9,40c12.8,12.3,26.7,24.5,40.9,35.2
	c10.4,7.7,22.5,16.1,33.6,22.8c88.6,54.4,196.1,75.9,299.1,64c29.9-0.8,68.6,22.6,67.9,55.3c-1.5,16.3-6.2,33.4-16.4,46.4
	c-16.1,20.5-43.6,25.7-68.5,26.2c-26.6,0.7-53.1-2.8-79.6-6.1c-17.7-2.2-35.5-4.6-53.3-6.3c35.3,6.7,70,15.1,105.8,19.2
	c47.9,5.7,100.2,1.7,118.3-51c2.3-6.4,4.1-13.8,5.2-20.5C1708,1152.5,1705.2,1139.1,1698.9,1128.5z"/>
<path class="st1" d="M1423.8,1688.8c-1.3,10-2.1,21.1-6.8,29.9c-2.3,4.2-5.9,8.5-8.9,13.2c-6.1,9.6-10.3,20-12.9,30.8
	c4.8-6.8,8.9-13.7,13.9-20.2c5.9-8.5,14.7-15.8,18.4-25.7c3.1-8.8,3.9-18.2,4.4-27.4c0.7-16.6,0-33-2.1-49.5
	C1426.9,1656.1,1425.7,1672.6,1423.8,1688.8z"/>
<path class="st1" d="M1128.8,1777.7c-19.8,0.2-39.2-1.7-57.7-8.9c13.1,10.9,30.4,15.7,47.3,17.1c-4.1,1.4-8,3.1-11.9,5.1
	c-8.4,4.1-16.1,9.4-23.5,14.7c-3.5,2.5-7.2,5.1-10.8,7.1c-3.4,1.8-7.7,3.2-11.9,4.5c-25.6,7.7-54.5,15-72.8,36
	c22-16.5,49.2-20.8,75.1-27.9c4.4-1.3,8.9-2.5,13.5-4.9c8.4-4.6,15-10.4,22.8-15.5c27.7-19.3,55.8-22.7,88-13
	c-3.7-3.5-8.2-6.2-13-8.3C1159.8,1777.7,1143.6,1777.8,1128.8,1777.7z"/>
<path class="st1" d="M1378,1626.6c-10.7-24.3-27.6-45.8-49-61.2c9.6,8.8,18.3,18.6,25.6,29.3c25.1,37.5,32.2,82.1,28,126.2
	c-2.2-11.8-6.8-23-14.9-32.5c-7.5-9.1-18-15.1-25.7-23.5c-7.8-8.5-6.5-20.9-3.4-31.4c-4,7.8-7,17.1-4.7,26
	c2.3,8.9,9.8,15.9,15.8,21.9c8,7.7,14.9,16.2,18.6,26.6c5.3,15.6,5,32.7,3.6,49c-1.9,18.5-5.8,36.9-12.8,54
	c-0.7,1.7-1.4,3.3-2.1,4.9c-4.7,10.1-11.7,23.9-20.4,36.7c-0.1,0.2-0.3,0.4-0.4,0.6c-0.2,0.4-0.5,0.7-0.7,1.1
	c-5.6,7.9-11.8,15.2-18.8,21.6c-1.7,1.5-3.5,3-5.3,4.3c-4.6,3.3-9.4,5.7-14.4,6.8c-0.4,0.1-0.7,0.1-1.1,0.2
	c-3.3,0.1-6.9-0.1-10.5-0.6c-7.5-1.2-15-3.5-22.1-6.6c-0.1,0-0.1,0-0.2-0.1c-11.3-5-21.7-12.1-30.1-20.5c0,0,0,0,0,0
	c-6.3-6.5-11-13.9-13.2-21.6c0,0,0-0.1,0-0.1c-0.5-1.8-0.9-3.7-1.1-5.6c0-0.3-0.1-0.5-0.1-0.8c-0.1-0.7-0.1-1.5-0.2-2.2
	c0-0.2,0-0.4,0-0.6c0-0.3,0-0.6,0-0.9c0-0.1,0-0.2,0-0.4c0-1.4-0.1-2.8-0.2-4.2c-0.1-1.3-0.2-2.6-0.3-3.7
	c-0.8-7.6-2.7-15.4-5.5-23.2c-0.1-0.2-0.1-0.4-0.2-0.6c-0.4-1.1-0.8-2.2-1.2-3.3c-0.2-0.5-0.4-0.9-0.6-1.4c-0.3-0.8-0.7-1.7-1-2.5
	c-0.2-0.6-0.5-1.1-0.8-1.7c-0.3-0.7-0.6-1.4-1-2.1c-0.3-0.6-0.6-1.3-0.9-1.9c-0.3-0.6-0.6-1.3-1-1.9c-0.3-0.6-0.7-1.3-1-1.9
	c-0.3-0.6-0.7-1.3-1-1.9c-0.3-0.6-0.7-1.2-1.1-1.9c-0.4-0.7-0.8-1.3-1.2-2c-0.3-0.6-0.7-1.1-1-1.7c-0.5-0.8-0.9-1.5-1.4-2.2
	c-0.3-0.5-0.6-0.9-0.9-1.4c-0.6-1-1.3-1.9-1.9-2.8c-0.2-0.2-0.3-0.5-0.5-0.7c-5.2-7.3-11.1-14.1-17.6-20c-0.1-0.1-0.1-0.1-0.2-0.2
	c-1-0.9-2-1.8-3-2.6c-0.1-0.1-0.3-0.2-0.4-0.3c-0.9-0.8-1.9-1.5-2.8-2.3c-0.2-0.2-0.4-0.3-0.6-0.5c-0.9-0.7-1.8-1.3-2.7-2
	c-0.3-0.2-0.6-0.4-0.9-0.6c-0.8-0.6-1.6-1.1-2.4-1.6c-0.4-0.2-0.8-0.5-1.1-0.7c-0.7-0.5-1.5-0.9-2.2-1.3c-0.5-0.3-1-0.6-1.4-0.8
	c-0.6-0.4-1.3-0.7-1.9-1c-0.6-0.3-1.2-0.6-1.7-0.9c-0.5-0.3-1.1-0.5-1.6-0.8c-0.7-0.3-1.4-0.7-2.1-1c-0.4-0.2-0.9-0.4-1.3-0.5
	c-0.8-0.3-1.6-0.7-2.4-1c-0.3-0.1-0.7-0.2-1-0.4c-0.9-0.3-1.8-0.7-2.7-0.9c-1.2-0.4-2.4-0.7-3.7-1.1c1.4,0.5,2.8,1.1,4.1,1.7
	c0.4,0.2,0.7,0.3,1.1,0.5c0.9,0.4,1.7,0.8,2.6,1.3c0.7,0.3,1.3,0.7,2,1c0.3,0.2,0.7,0.4,1,0.6c8.1,4.7,15.8,11,22.7,18.3
	c0.5,0.5,1,1.1,1.5,1.6c0.1,0.1,0.1,0.1,0.2,0.2c7.5,8.4,13.8,18,19,27.7c1.5,2.9,2.9,5.8,4.2,8.8c0,0,0,0.1,0,0.1
	c0.3,0.6,0.5,1.2,0.7,1.8c4.4,10.9,7.2,22.1,7.9,32.7c0.1,1,0.1,2,0.1,3c0,0,0,0.1,0,0.1c0,0.6,0,1.2,0,1.8c-0.1,2-0.1,4,0,6
	c0,0.2,0,0.5,0,0.7c0,0.1,0,0.3,0,0.4c0,0.7,0.1,1.3,0.2,1.9c0.1,0.7,0.2,1.4,0.3,2.1c0,0.1,0,0.2,0,0.3c0.4,2.6,1,5.1,1.8,7.6
	c0.1,0.2,0.1,0.5,0.2,0.7c0.2,0.5,0.3,0.9,0.5,1.3c0.3,0.7,0.5,1.4,0.8,2.1c0.1,0.2,0.1,0.3,0.2,0.5c2.8,6.6,6.9,12.7,11.9,18.3
	c1.8,2.1,4,4.2,6.4,6.4c9,8.1,19.8,14.7,30.9,19.4c9.3,4,19,6.8,28,7.2c0.5,0,1.1,0.1,1.6,0.1c3.1,0.1,6.2-0.2,9.2-0.8
	c2.9-0.6,5.7-1.5,8.3-2.8c0,0,0.1,0,0.1,0c7.9-3.6,15.1-9.5,21.5-16.2c15-15.2,26.4-35.4,35.1-53.2c2.1-4.4,4.1-8.9,5.8-13.5
	C1396.3,1754.3,1402.8,1684.6,1378,1626.6z"/>
<path class="st1" d="M1071.4,1310.9c10.7,3,20.9,7.9,32,11.7c10.9,3.8,24.3,6.5,35.1,1c-11.7,0.8-21.9-3.4-32.2-8.2
	c-35.4-17.9-66-23.3-100.4,0.9C1027,1308,1049.6,1304.1,1071.4,1310.9z"/>
<path class="st1" d="M994.3,1325.6c-13.2,3.8-24.9,12.9-32.8,24.2c-1,1.3-4.6,5.4-5.7,6.5c-8.3,9-16.6,18.7-22.6,29.7
	c-5.5,8.8-5.8,18-2.7,27.5c2.6,8,6.6,15.4,10.7,22.5c0.4,4.6,0.6,9.2,0.3,13.8c-2.2,35.2-25.1,66.9-23.1,102.9
	c0.4,7,1.6,13.9,3.8,20.5c-0.1-19.4,0.7-40.4,12.9-56.1c0.6-0.7,2.2-2.5,2.8-3.2c1.4-1.3,2.7-2.6,4.2-3.8
	c5.2-4.2,11.1-7.3,17.2-10.2c-0.2,3.4-0.4,6.8-0.7,10.3c-1.1,9.1-2.3,18.2-4.2,27.2c-2.9,12.8-6.5,26.4-16.7,35.3
	c-3.9,3.3-8.7,5.6-13.6,7.9c11,3,22.9-1.2,30.3-9.7c1.5,21.6,8.8,43.2,22.8,59.8c-12.5-20.6-17.4-44.7-15.5-68.4
	c1.8-15.7,4.9-32,6.8-47.7c1.9-16.6,3.4-33.3-0.4-50c-4.9-19.9-20.5-35.4-27-54.4c-1.4-4.2-2.1-8.1-1.5-12.1c0.5-2.4,1.7-4.7,2.8-7
	c4.7-9.2,10.9-17.2,17.4-25.3c2.3,4.1,7.4,6.5,11,8.6c3.2,1.8,6.2,2.7,9.1,4.3c0.3,0.3,0.5,0.4,0.5,1c-0.4,2.5-2.6,4.8-3.2,7.4
	c-0.2,0.8-0.2,1.6,0,2.3c0.5-1.4,1.5-2.2,2.6-3.1c11.2-7.8,3.2-14.3-5.7-18.3c-3.1-1.7-6.7-3.2-8.4-5.9c-0.5-0.8,0.5-1.8,0.9-2.5
	c4-6.2,8.4-12.7,13.8-17.6c16.4-15.3,40.7-16.9,62.4-17C1027,1321.9,1010.3,1320.9,994.3,1325.6z M957.1,1467.1
	c1.8,8.2,2.5,16.4,2.4,24.8c-5.2,1.1-10.2,3-14.8,5.6c-5.3,3.1-9.6,6.9-13.2,11.3c1.9-5.2,3.8-10.3,5.5-15.3
	c6.2-16.4,10-33.4,8.7-50c0.6,1.1,1.3,2.2,1.9,3.2C951.6,1453.4,955.5,1459.8,957.1,1467.1z"/>
<path class="st1" d="M972.5,1861c9.2-12.3,17.7-25,26.4-37.6c2.9-4.2,5.8-8.3,8.8-12.4c0.6-0.9,1.2-1.7,1.8-2.6
	c1.6-2.3,3.3-4.5,5-6.8c14.9-20.2,30.9-39.8,49.8-56.4c-16.8,11.8-31.4,26.1-44.9,41.6c4.3-14.8,4.8-30.8,3.6-45.9
	c-1.2,20.4-4.2,41.6-15.2,59.2c-2.1,3-4.2,5.9-6.4,8.8c-3.6,4.7-7.2,9.4-10.7,14.1c-3.2,4.3-6.4,8.5-9.5,12.9c0,0-0.1,0.1-0.1,0.1
	c-3.4,4.5-6.7,9.1-10.1,13.7c-2.2,2.9-4.4,5.8-6.6,8.7c-1.8,2.3-3.6,4.6-5.5,7c-3.4,4.1-6.9,8.1-10.7,11.9c-2.5,2.4-5.2,4.7-8.1,6.7
	c-1.6,1-3.3,1.9-5.1,2.5c-1,0.3-2,0.6-3,0.8c-0.5,0.1-1,0.2-1.5,0.2c-0.9,0.1-1.8,0.1-2.7,0c-0.9-0.1-1.7-0.3-2.4-0.6
	c-0.1,0-0.2-0.1-0.3-0.1c-0.1-0.1-0.2-0.1-0.3-0.2c-2.8-1.6-4.2-5-4.8-8.9c-0.3-2.4-0.4-4.8-0.5-6.9c0-0.2,0-0.4,0-0.6
	c0-1.3,0-2.6,0.1-3.9c0-0.1,0-0.2,0-0.2c0.1-1.2,0.1-2.5,0.2-3.8c0-0.5,0.1-1.1,0.1-1.6c0.1-0.9,0.2-1.8,0.2-2.8
	c0-0.3,0-0.5,0.1-0.8c0.1-1.3,0.3-2.6,0.4-3.8c0.1-0.5,0.1-0.9,0.2-1.4c0-0.2,0.1-0.4,0.1-0.5c0.1-0.5,0.2-0.9,0.3-1.4
	c0.1-0.3,0.1-0.5,0.2-0.8c0.1-0.2,0.1-0.5,0.2-0.7c0.3-1.1,0.6-2.1,1-3.1c0.1-0.1,0.1-0.3,0.2-0.4c0.2-0.4,0.3-0.8,0.5-1.1
	c0.2-0.4,0.4-0.8,0.6-1.1c0,0,0.1-0.1,0.1-0.1c0.8-1.4,1.6-2.8,2.6-4.1c0,0,0,0,0,0c0.1-0.1,0.2-0.3,0.3-0.4c1.8-2.3,3.7-4.6,5.8-7
	c1.6-1.9,3.3-3.8,4.9-5.7c0.1-0.1,0.2-0.3,0.3-0.4c0.1-0.1,0.2-0.3,0.3-0.4c0.3-0.4,0.6-0.8,0.9-1.2c0.6-0.7,1.1-1.4,1.7-2.1
	c0.5-0.7,1-1.3,1.5-2c0.4-0.6,0.8-1.1,1.2-1.7c0.7-1,1.3-1.9,2-2.9c0.2-0.3,0.4-0.6,0.6-0.9c0.9-1.3,1.7-2.6,2.5-4
	c-2.2,2.2-4.3,4.4-6.5,6.5c-0.8,0.8-1.6,1.5-2.4,2.2c-1.5,1.5-3.1,3-4.7,4.4c-0.8,0.8-1.7,1.5-2.6,2.3c-4.1,3.7-8.5,7.5-11.9,11.9
	c-0.1,0.1-0.2,0.2-0.2,0.3c-0.3,0.3-0.5,0.7-0.7,1c-0.2,0.3-0.4,0.6-0.6,0.9c-0.1,0.2-0.2,0.3-0.3,0.5c-0.3,0.4-0.5,0.9-0.8,1.3
	c0,0,0,0.1-0.1,0.1c-0.6,1-1.1,2.1-1.6,3.2c-0.4,1-0.8,2-1.1,3.1c-0.1,0.4-0.2,0.7-0.3,1.1c-0.1,0.4-0.2,0.7-0.3,1.1
	c-0.5,1.8-0.8,3.6-1,5.5c0,0.2,0,0.3,0,0.5c-0.3,1.9-0.5,3.8-0.7,5.6c-0.1,0.7-0.1,1.3-0.2,2c-0.5,4.2-0.8,8.5-0.5,12.8
	c0,0.2,0,0.4,0,0.6c0,0.4,0,0.7,0.1,1.1c0.4,4.3,1.6,8.6,4.3,12.4c0,0,0.1,0.1,0.1,0.1c0,0,0,0,0,0c0,0,0,0,0,0c0.9,1.2,2,2.2,3.3,3
	c0.1,0.1,0.2,0.1,0.3,0.2c0.3,0.2,0.6,0.3,0.9,0.5c0.3,0.1,0.5,0.3,0.8,0.4c0.1,0,0.2,0.1,0.3,0.1c2.1,0.9,4.5,1.3,6.8,1.3
	c0.1,0,0.2,0,0.2,0c0.3,0,0.7,0,1,0c0.3,0,0.6,0,0.9-0.1c0.1,0,0.2,0,0.3,0c1.9-0.2,3.7-0.5,5.4-1c0.6-0.2,1.2-0.4,1.8-0.6
	c3.3-1.2,6.2-3,9-5.1c4-3,7.6-6.6,10.9-10.4c0,0,0.1-0.1,0.1-0.1c0.1-0.1,0.1-0.2,0.2-0.3c2.4-2.8,4.8-5.7,7.1-8.5
	C968.2,1866.7,970.4,1863.9,972.5,1861z"/>
<path class="st1" d="M965.3,1387.9c-8-0.4-18,1.1-22.4,8.7c2.6-1.2,4.9-2.2,7.4-2.8c5.1-1.4,10.1-1.2,15.4-2.3
	c2.7-0.6,5.7-1.8,7.4-4.1C970.3,1387.9,967.9,1387.9,965.3,1387.9z"/>
<path class="st1" d="M1191.1,1490.8c-4.5-7.1-9.3-13.9-14.6-20.4c-5.8-6.8-11.2-13.6-19.2-18.2c-16-7.8-35.3-6-51.6-1.1
	c-8.1,2.3-15.7,5.2-23.4,7.4c-7.7,2.1-15.6,3.8-23.3,0.5c7.4,6.6,17.9,6.7,28.3,5.2c-12.9,12-19.6,29.7-17.7,46.3
	c-0.9-1.8-1.9-3.5-2.8-5.3c-8.5-15.4-19-30.5-33-41.3c12.5,18,20.7,37.8,28.7,57.8c2.6,6.2,5.1,12.5,8.6,18.4
	c2.4,4,5.7,8.5,10.2,10.7c3.3,1.6,7.6,2,10.6,2.1c9.5,0.3,18.1-0.7,26.9-1.6c8.7-1,17.3-2.3,25.9-3.6c17.2-2.7,34.2-5.8,51.6-8.3
	c-17.4-3.1-35.1-2.6-52.6-2c-13,0.5-25.9,1.7-38.9,2.3c-5.7,0.2-12.1,0.7-17.3-0.4c-0.1,0-0.1-0.1-0.2-0.1
	c-21.4-23.1-12.3-60.3,17.6-74.1c21.1-9.8,48.8-6.9,64.8,11.2c9.6,10.6,15.8,25.8,13.7,40.4c-0.8,4.9-3,9.8-7.3,12.6
	c9.7-5.1,11.1-17.9,10.2-27.8c-0.3-2.5-0.7-4.9-1.3-7.2c0.1,0.2,0.3,0.4,0.4,0.5c7.7,10.5,22.3,29.5,21.1,42.8
	C1210.6,1524,1198.1,1502.4,1191.1,1490.8z"/>
<path class="st1" d="M963.7,1691.2c-21-33.7-37.8-69.3-47.1-108.2c-1.7,40.9,17.7,79.8,41.7,111.8c7.9,10.8,17.1,20.5,25.1,31.3
	C979.2,1715.2,969.6,1701.3,963.7,1691.2z"/>
</svg>
